<svg width="226" height="33" viewBox="0 0 226 33" fill="none" xmlns="http://www.w3.org/2000/svg">
<path d="M0 16.1034L12.5556 22.3793L25.1111 21.4483L37.6667 27.7241L50.2222 15L62.7778 0L75.3333 4.65517L87.8889 4.27586L100.444 21.2069L113 12.7931L125.556 7.03448L138.111 10.2759L150.667 11.3103L163.222 8.2069L175.778 31.5172L188.333 6.93104L200.889 19.3103L213.444 12.6897L226 28.0345V33H213.444H200.889H188.333H175.778H163.222H150.667H138.111H125.556H113H100.444H87.8889H75.3333H62.7778H50.2222H37.6667H25.1111H12.5556H0V16.1034Z" fill="#975FE4" fill-opacity="0.5"/>
</svg>
