<svg width="225" height="29" viewBox="0 0 225 29" fill="none" xmlns="http://www.w3.org/2000/svg">
<rect y="12" width="5" height="17" fill="#3AA0FF"/>
<rect x="10" y="19" width="5" height="10" fill="#3AA0FF"/>
<rect x="20" y="5" width="5" height="24" fill="#3AA0FF"/>
<rect x="30" y="19" width="5" height="10" fill="#3AA0FF"/>
<rect x="40" y="12" width="5" height="17" fill="#3AA0FF"/>
<rect x="50" y="6" width="5" height="23" fill="#3AA0FF"/>
<rect x="60" width="5" height="29" fill="#3AA0FF"/>
<rect x="70" y="20" width="5" height="9" fill="#3AA0FF"/>
<rect x="80" y="25" width="5" height="4" fill="#3AA0FF"/>
<rect x="90" y="12" width="5" height="17" fill="#3AA0FF"/>
<rect x="100" y="21" width="5" height="8" fill="#3AA0FF"/>
<rect x="110" y="13" width="5" height="16" fill="#3AA0FF"/>
<rect x="120" y="23" width="5" height="6" fill="#3AA0FF"/>
<rect x="130" y="10" width="5" height="19" fill="#3AA0FF"/>
<rect x="140" y="4" width="5" height="25" fill="#3AA0FF"/>
<rect x="150" y="13" width="5" height="16" fill="#3AA0FF"/>
<rect x="160" y="18" width="5" height="11" fill="#3AA0FF"/>
<rect x="170" y="19" width="5" height="10" fill="#3AA0FF"/>
<rect x="180" y="18" width="5" height="11" fill="#3AA0FF"/>
<rect x="190" y="12" width="5" height="17" fill="#3AA0FF"/>
<rect x="200" y="5" width="5" height="24" fill="#3AA0FF"/>
<rect x="210" y="20" width="5" height="9" fill="#3AA0FF"/>
<rect x="220" y="25" width="5" height="4" fill="#3AA0FF"/>
</svg>
