<svg width="226" height="33" viewBox="0 0 226 33" fill="none" xmlns="http://www.w3.org/2000/svg">
<path d="M0 12.3333C0 12.3333 7.13684 19.6667 11.8947 19.6667C16.6526 19.6667 19.0316 11.3333 23.7895 11.3333C28.5474 11.3333 30.9263 30 35.6842 30C40.4421 30 42.8211 0 47.5789 0C52.3368 0 54.7158 17 59.4737 23.3333C64.2316 29.6667 66.6105 31.6667 71.3684 31.6667C76.1263 31.6667 78.5053 29.4667 83.2632 24.6667C88.021 19.8667 90.4 7.66667 95.1579 7.66667C99.9158 7.66667 102.295 33 107.053 33C111.811 33 114.189 11 118.947 5.66667C123.705 0.333332 126.084 0.333334 130.842 0.333334C135.6 0.333334 137.979 3.66667 142.737 3.66667C147.495 3.66667 149.874 0.666666 154.632 0.666666C159.389 0.666666 161.768 30.6667 166.526 30.6667C171.284 30.6667 173.663 30.6667 178.421 27.3333C183.179 24 185.558 15.6 190.316 11.3333C195.074 7.06667 197.453 6 202.211 6C206.968 6 209.347 30 214.105 30C218.863 30 226 18.3333 226 18.3333V33C226 33 218.863 33 214.105 33C209.347 33 206.968 33 202.211 33C197.453 33 195.074 33 190.316 33C185.558 33 183.179 33 178.421 33C173.663 33 171.284 33 166.526 33C161.768 33 159.389 33 154.632 33C149.874 33 147.495 33 142.737 33C137.979 33 135.6 33 130.842 33C126.084 33 123.705 33 118.947 33C114.189 33 111.811 33 107.053 33C102.295 33 99.9158 33 95.1579 33C90.4 33 88.021 33 83.2632 33C78.5053 33 76.1263 33 71.3684 33C66.6105 33 64.2316 33 59.4737 33C54.7158 33 52.3368 33 47.5789 33C42.8211 33 40.4421 33 35.6842 33C30.9263 33 28.5474 33 23.7895 33C19.0316 33 16.6526 33 11.8947 33C7.13684 33 0 33 0 33V12.3333Z" fill="#975FE4" fill-opacity="0.5"/>
</svg>
