<svg width="176" height="48" viewBox="0 0 176 48" fill="none" xmlns="http://www.w3.org/2000/svg">
<path d="M0 45.6C0 45.6 5.5579 16.8 9.26316 16.8C12.9684 16.8 14.8211 26.4 18.5263 26.4C22.2316 26.4 24.0842 5.76 27.7895 5.76C31.4947 5.76 33.3474 25.44 37.0526 27.84C40.7579 30.24 42.6105 28.992 46.3158 30.24C50.0211 31.488 51.8737 34.08 55.5789 34.08C59.2842 34.08 61.1368 22.944 64.8421 17.28C68.5474 11.616 70.4 5.76 74.1053 5.76C77.8105 5.76 79.6632 31.2 83.3684 31.2C87.0737 31.2 88.9263 0 92.6316 0C96.3368 0 98.1895 5.16275e-07 101.895 6.72C105.6 13.44 107.453 38.4 111.158 38.4C114.863 38.4 116.716 38.4 120.421 32.64C124.126 26.88 125.979 1.92 129.684 1.92C133.389 1.92 135.242 10.08 138.947 10.08C142.653 10.08 144.505 1.44 148.211 1.44C151.916 1.44 153.768 25.44 157.474 27.84C161.179 30.24 163.032 27.84 166.737 30.24C170.442 32.64 176 48 176 48C176 48 170.442 48 166.737 48C163.032 48 161.179 48 157.474 48C153.768 48 151.916 48 148.211 48C144.505 48 142.653 48 138.947 48C135.242 48 133.389 48 129.684 48C125.979 48 124.126 48 120.421 48C116.716 48 114.863 48 111.158 48C107.453 48 105.6 48 101.895 48C98.1895 48 96.3368 48 92.6316 48C88.9263 48 87.0737 48 83.3684 48C79.6632 48 77.8105 48 74.1053 48C70.4 48 68.5474 48 64.8421 48C61.1368 48 59.2842 48 55.5789 48C51.8737 48 50.0211 48 46.3158 48C42.6105 48 40.7579 48 37.0526 48C33.3474 48 31.4947 48 27.7895 48C24.0842 48 22.2316 48 18.5263 48C14.8211 48 12.9684 48 9.26316 48C5.5579 48 0 48 0 48V45.6Z" fill="#178EE8" fill-opacity="0.15"/>
</svg>
